<?xml version="1.0" encoding="UTF-8" standalone="no"?>
<svg
   xmlns:dc="http://purl.org/dc/elements/1.1/"
   xmlns:cc="http://creativecommons.org/ns#"
   xmlns:rdf="http://www.w3.org/1999/02/22-rdf-syntax-ns#"
   xmlns:svg="http://www.w3.org/2000/svg"
   xmlns="http://www.w3.org/2000/svg"
   xmlns:sodipodi="http://sodipodi.sourceforge.net/DTD/sodipodi-0.dtd"
   xmlns:inkscape="http://www.inkscape.org/namespaces/inkscape"
   width="225"
   height="225"
   viewBox="0 0 225 225"
   version="1.1"
   id="svg8"
   sodipodi:docname="blu-bird-blob.svg"
   inkscape:version="1.0.2-2 (e86c870879, 2021-01-15)">
  <defs
     id="defs2">
    <clipPath
       clipPathUnits="userSpaceOnUse"
       id="clipPath112">
      <path
         d="m 330.279,328.529 h 87.912 v -16.55 h -87.912 z"
         id="path110" />
    </clipPath>
    <clipPath
       clipPathUnits="userSpaceOnUse"
       id="clipPath256">
      <path
         d="m 328.441,122.184 h 87.913 v -16.549 h -87.913 z"
         id="path254" />
    </clipPath>
    <clipPath
       clipPathUnits="userSpaceOnUse"
       id="clipPath28">
      <path
         d="m 40.3687,328.529 h 87.9123 v -16.55 H 40.3687 Z"
         id="path26" />
    </clipPath>
    <clipPath
       clipPathUnits="userSpaceOnUse"
       id="clipPath112-6">
      <path
         d="m 330.279,328.529 h 87.912 v -16.55 h -87.912 z"
         id="path110-4" />
    </clipPath>
    <clipPath
       clipPathUnits="userSpaceOnUse"
       id="clipPath112-57">
      <path
         d="m 330.279,328.529 h 87.912 v -16.55 h -87.912 z"
         id="path110-73" />
    </clipPath>
    <clipPath
       clipPathUnits="userSpaceOnUse"
       id="clipPath256-4">
      <path
         d="m 328.441,122.184 h 87.913 v -16.549 h -87.913 z"
         id="path254-89" />
    </clipPath>
    <clipPath
       clipPathUnits="userSpaceOnUse"
       id="clipPath28-3">
      <path
         d="m 40.3687,328.529 h 87.9123 v -16.55 H 40.3687 Z"
         id="path26-6" />
    </clipPath>
    <clipPath
       clipPathUnits="userSpaceOnUse"
       id="clipPath112-6-9">
      <path
         d="m 330.279,328.529 h 87.912 v -16.55 h -87.912 z"
         id="path110-4-3" />
    </clipPath>
    <clipPath
       clipPathUnits="userSpaceOnUse"
       id="clipPath112-5">
      <path
         d="m 330.279,328.529 h 87.912 v -16.55 h -87.912 z"
         id="path110-7" />
    </clipPath>
    <clipPath
       clipPathUnits="userSpaceOnUse"
       id="clipPath256-0">
      <path
         d="m 328.441,122.184 h 87.913 v -16.549 h -87.913 z"
         id="path254-8" />
    </clipPath>
  </defs>
  <sodipodi:namedview
     id="base"
     pagecolor="#ffffff"
     bordercolor="#666666"
     borderopacity="1.0"
     inkscape:pageopacity="0.0"
     inkscape:pageshadow="2"
     inkscape:zoom="0.35"
     inkscape:cx="165.33709"
     inkscape:cy="467.04051"
     inkscape:document-units="mm"
     inkscape:current-layer="layer1"
     inkscape:document-rotation="0"
     showgrid="false"
     inkscape:window-width="1366"
     inkscape:window-height="738"
     inkscape:window-x="0"
     inkscape:window-y="0"
     inkscape:window-maximized="0" />
  <metadata
     id="metadata5">
    <rdf:RDF>
      <cc:Work
         rdf:about="">
        <dc:format>image/svg+xml</dc:format>
        <dc:type
           rdf:resource="http://purl.org/dc/dcmitype/StillImage" />
        <dc:title></dc:title>
      </cc:Work>
    </rdf:RDF>
  </metadata>
  <g
     inkscape:label="Livello 1"
     inkscape:groupmode="layer"
     id="layer1"
     transform="translate(278.54599,-498.98545)">
    <g
       inkscape:label="Livello 1"
       id="layer1-4"
       transform="translate(34.017854,14.363105)">
      <path
         d="m -130.56674,501.45011 c 26.88897,18.36372 43.3235,53.16659 41.73168,86.40573 -1.63486,33.27924 -21.33909,65.03485 -48.22806,85.96469 -26.88897,20.88973 -60.96268,30.99379 -91.98181,28.14702 -31.06213,-2.84678 -59.02666,-18.6043 -72.49265,-39.49404 -13.42298,-20.92984 -12.34742,-46.9919 -8.43238,-69.44535 3.91503,-22.45346 10.62652,-41.25824 24.04949,-59.62196 13.466,-18.40382 33.64348,-36.3265 62.38241,-44.34559 28.73895,-7.979 66.08234,-5.97423 92.97132,12.3895"
         fill="#f7caca"
         id="path10"
         style="fill:#d6fffe;fill-opacity:1;stroke-width:0.415331" />
      <g
         id="g1130"
         transform="matrix(1.2207102,0,0,-1.1936004,-677.07488,788.19929)">
        <g
           id="g250">
          <g
             id="g252" />
          <g
             id="g264">
            <g
               clip-path="url(#clipPath256-0)"
               opacity="0.0500031"
               id="g262">
              <g
                 transform="translate(416.3545,113.9092)"
                 id="g260">
                <path
                   d="m 0,0 c 0,-4.57 -19.681,-8.274 -43.956,-8.274 -24.276,0 -43.957,3.704 -43.957,8.274 0,4.57 19.681,8.274 43.957,8.274 C -19.681,8.274 0,4.57 0,0"
                   style="fill:#111110;fill-opacity:1;fill-rule:nonzero;stroke:none"
                   id="path258" />
              </g>
            </g>
          </g>
        </g>
        <g
           id="g266"
           transform="translate(333.8262,132.0225)">
          <path
             d="m 0,0 c 0,0 -23.532,-17.902 -23.368,-19.318 0.164,-1.417 10.356,-0.394 10.855,0 0.5,0.393 6.918,7.964 6.918,7.964 0,0 -4.607,-7.536 -3.456,-7.964 1.152,-0.429 8.887,-0.723 9.874,0 0.988,0.721 7.075,17.672 7.075,17.672 z"
             style="fill:#1e5977;fill-opacity:1;fill-rule:nonzero;stroke:none"
             id="path268" />
        </g>
        <g
           id="g270"
           transform="translate(375.5293,140.1484)">
          <path
             d="m 0,0 v -14.362 c 0,-1.716 2.661,-1.716 2.661,0 V 0 C 2.661,1.717 0,1.717 0,0"
             style="fill:#dd6e0a;fill-opacity:1;fill-rule:nonzero;stroke:none"
             id="path272" />
        </g>
        <g
           id="g274"
           transform="translate(368.9229,118.8711)">
          <path
             d="m 0,0 c 1.941,6.386 13.933,6.386 15.875,0 0.499,-1.635 3.066,-0.937 2.564,0.708 C 15.725,9.626 0.15,9.627 -2.565,0.708 -3.066,-0.937 -0.498,-1.635 0,0"
             style="fill:#dd6e0a;fill-opacity:1;fill-rule:nonzero;stroke:none"
             id="path276" />
        </g>
        <g
           id="g278"
           transform="translate(376.5068,123.6172)">
          <path
             d="m 0,0 c -0.553,0.217 -0.052,0.007 0.095,-0.079 0.33,-0.193 0.514,-0.377 0.812,-0.691 1.079,-1.137 1.307,-2.835 1.307,-4.331 0.002,-1.716 2.662,-1.716 2.662,0 C 4.874,-2.095 3.743,1.369 0.706,2.565 -0.891,3.193 -1.577,0.62 0,0"
             style="fill:#dd6e0a;fill-opacity:1;fill-rule:nonzero;stroke:none"
             id="path280" />
        </g>
        <g
           id="g282"
           transform="translate(361.2568,135.623)">
          <path
             d="m 0,0 v -14.362 c 0,-1.716 2.659,-1.716 2.659,0 V 0 C 2.659,1.716 0,1.716 0,0"
             style="fill:#f4881c;fill-opacity:1;fill-rule:nonzero;stroke:none"
             id="path284" />
        </g>
        <g
           id="g286"
           transform="translate(354.6475,114.3457)">
          <path
             d="m 0,0 c 1.944,6.385 13.934,6.385 15.878,0 0.497,-1.636 3.066,-0.937 2.564,0.707 -2.714,8.92 -18.292,8.92 -21.006,0 C -3.064,-0.937 -0.497,-1.636 0,0"
             style="fill:#f4881c;fill-opacity:1;fill-rule:nonzero;stroke:none"
             id="path288" />
        </g>
        <g
           id="g290"
           transform="translate(362.2324,119.0908)">
          <path
             d="m 0,0 c -0.554,0.219 -0.05,0.008 0.097,-0.079 0.328,-0.192 0.514,-0.376 0.811,-0.69 1.08,-1.138 1.306,-2.835 1.308,-4.332 0,-1.714 2.661,-1.714 2.659,0 C 4.873,-2.094 3.745,1.37 0.708,2.565 -0.891,3.194 -1.577,0.621 0,0"
             style="fill:#f4881c;fill-opacity:1;fill-rule:nonzero;stroke:none"
             id="path292" />
        </g>
        <g
           id="g294"
           transform="translate(418.2207,204.7471)">
          <path
             d="m 0,0 c 0,0 43.91,6.671 56.852,-44.294 0,0 -29.76,10.144 -60.073,8.249 0,0 3.194,24.384 3.221,36.045"
             style="fill:#c4ea83;fill-opacity:1;fill-rule:nonzero;stroke:none"
             id="path296" />
        </g>
        <g
           id="g298"
           transform="translate(458.0771,191.5752)">
          <path
             d="m 0,0 c 1.521,-6.401 3.827,-17.588 4.123,-27.565 7.92,-1.87 12.872,-3.557 12.872,-3.557 C 13.287,-16.518 7.033,-6.651 0,0"
             style="fill:#fe7aab;fill-opacity:1;fill-rule:nonzero;stroke:none"
             id="path300" />
        </g>
        <g
           id="g302"
           transform="translate(462.0664,166.8154)">
          <path
             d="M 0,0 C 0,0 -7.49,18.136 -45.381,16.354 -46.21,8.429 -47.066,1.887 -47.066,1.887 -29.186,3.004 -11.501,-0.067 0,-2.774 Z"
             style="fill:#ff8a33;fill-opacity:1;fill-rule:nonzero;stroke:none"
             id="path304" />
        </g>
        <g
           id="g306"
           transform="translate(323.416,128.9072)">
          <path
             d="M 0,0 C 0,0 16.312,24.251 25.533,38.122 34.194,51.155 56.387,94.421 82.187,88.57 107.985,82.719 108.869,42.095 77.4,21.543 38.3,-3.99 8.776,-3.724 0,0"
             style="fill:#1b4966;fill-opacity:1;fill-rule:nonzero;stroke:none"
             id="path308" />
        </g>
        <g
           id="g310"
           transform="translate(414.4697,213.4668)">
          <path
             d="m 0,0 c -10.836,-3.32 -22.047,-15.012 -28.459,-31.15 -6.206,-15.62 -6.279,-31.288 -1.197,-41.211 5.436,1.986 10.796,5.427 16.334,9.046 C 14.003,-45.471 18.259,-12.655 0,0"
             style="fill:#ffcf03;fill-opacity:1;fill-rule:nonzero;stroke:none"
             id="path312" />
        </g>
        <g
           id="g314"
           transform="translate(416.9746,196.3486)">
          <path
             d="m 0,0 c 0,-1.763 -1.429,-3.191 -3.191,-3.191 -1.763,0 -3.192,1.428 -3.192,3.191 0,1.763 1.429,3.191 3.192,3.191 C -1.429,3.191 0,1.763 0,0"
             style="fill:#352a30;fill-opacity:1;fill-rule:nonzero;stroke:none"
             id="path316" />
        </g>
        <g
           id="g318"
           transform="translate(321.3135,146.3564)">
          <path
             d="M 0,0 C 0,0 27.144,32.98 41.866,36.438 56.586,39.896 61.918,17.022 51.871,6.649 41.825,-3.724 12.711,-13.565 0,0"
             style="fill:#1e5977;fill-opacity:1;fill-rule:nonzero;stroke:none"
             id="path320" />
        </g>
        <g
           id="g322"
           transform="translate(347.4854,169.8721)">
          <path
             d="m 0,0 c 0,0 -21.887,-18.268 -20.405,-20.406 1.48,-2.139 9.706,-0.987 14.644,2.304 0,0 -2.796,-3.786 2.141,-4.279 4.937,-0.494 18.723,11.191 18.723,11.191 0,0 -1.702,-5.43 1.636,-5.102 3.338,0.329 9.427,10.203 7.946,18.103 C 23.204,9.709 13.32,9.212 0,0"
             style="fill:#1b4966;fill-opacity:1;fill-rule:nonzero;stroke:none"
             id="path324" />
        </g>
      </g>
    </g>
  </g>
</svg>
