<svg id="visual" viewBox="0 0 540 960" width="540" height="960" xmlns="http://www.w3.org/2000/svg" xmlns:xlink="http://www.w3.org/1999/xlink" version="1.1"><rect x="0" y="0" width="540" height="960" fill="#f8f8f8"></rect><path d="M0 832L22.5 813.7C45 795.3 90 758.7 135 680.2C180 601.7 225 481.3 270 438.5C315 395.7 360 430.3 405 409.8C450 389.3 495 313.7 517.5 275.8L540 238L540 961L517.5 961C495 961 450 961 405 961C360 961 315 961 270 961C225 961 180 961 135 961C90 961 45 961 22.5 961L0 961Z" fill="#be1534" stroke-linecap="round" stroke-linejoin="miter"></path></svg>