<?xml version="1.0" encoding="UTF-8" standalone="no"?>
<svg
   xmlns:dc="http://purl.org/dc/elements/1.1/"
   xmlns:cc="http://creativecommons.org/ns#"
   xmlns:rdf="http://www.w3.org/1999/02/22-rdf-syntax-ns#"
   xmlns:svg="http://www.w3.org/2000/svg"
   xmlns="http://www.w3.org/2000/svg"
   xmlns:sodipodi="http://sodipodi.sourceforge.net/DTD/sodipodi-0.dtd"
   xmlns:inkscape="http://www.inkscape.org/namespaces/inkscape"
   width="476.48492pt"
   height="476.46234pt"
   viewBox="0 0 476.48492 476.46234"
   version="1.1"
   id="svg10"
   sodipodi:docname="parrot.svg"
   inkscape:version="1.0.2-2 (e86c870879, 2021-01-15)">
  <metadata
     id="metadata14">
    <rdf:RDF>
      <cc:Work
         rdf:about="">
        <dc:format>image/svg+xml</dc:format>
        <dc:type
           rdf:resource="http://purl.org/dc/dcmitype/StillImage" />
        <dc:title></dc:title>
      </cc:Work>
    </rdf:RDF>
  </metadata>
  <sodipodi:namedview
     pagecolor="#ffffff"
     bordercolor="#666666"
     borderopacity="1"
     objecttolerance="10"
     gridtolerance="10"
     guidetolerance="10"
     inkscape:pageopacity="0"
     inkscape:pageshadow="2"
     inkscape:window-width="1366"
     inkscape:window-height="715"
     id="namedview12"
     showgrid="false"
     inkscape:zoom="0.50455015"
     inkscape:cx="666.96733"
     inkscape:cy="241.29453"
     inkscape:window-x="-8"
     inkscape:window-y="-8"
     inkscape:window-maximized="1"
     inkscape:current-layer="svg10" />
  <defs
     id="defs2" />
  <g
     id="symbols"
     transform="matrix(54.297847,0,0,54.297847,-7.5184513e-4,-0.01217343)"
     fill="none">
    <path
       id="shape0"
       transform="matrix(0.01727382,0,0,0.01727382,2.2631983,1.0172551)"
       fill="#a7bdcd"
       stroke="#000000"
       stroke-opacity="0"
       stroke-width="0"
       stroke-linecap="square"
       stroke-linejoin="bevel"
       d="M 22.618,275.123 H 367 v 40 H 0 Z M 364.451,38.644 C 363.761,23.99 358.139,10.568 349.226,0 306.905,12 273.791,36.173 248.271,70.387 c 21.489,12.531 46.853,16.656 71.011,11.855 -1.068,4.9008 -2.825,9.6257 -5.218,14.034 -2.168,3.989 1.569,8.636 5.88,7.212 26.831,-8.864 45.925,-34.728 44.507,-64.844 z" />
    <path
       id="shape1"
       transform="matrix(0.01727382,0,0,0.01727382,0.17199086,0.17296432)"
       fill="#ff9c9b"
       stroke="#000000"
       stroke-opacity="0"
       stroke-width="0"
       stroke-linecap="square"
       stroke-linejoin="bevel"
       d="M 470.292,48.8799 367.562,120.5 c 3.88,26.86 1.56,53.18 -5.87,77.52 -5.77,18.9 -18.77,34.87 -36.34,43.91 -15.18,7.82 -32.27,12.4 -50.38,13 l 0.02,49.1 c 0.01,10.7 -8.39,19.44 -18.96,19.97 h -88.95 l -42.05,79.78 C 105.738,440.393 75.2678,469.896 38.0523,488 l 27.38,-65.35 -25.07,20.71 C 16.4173,461.968 -12.3567,432.161 5.63226,408.79 L 55.0323,348.46 c -11.0971,1.714 -22.2505,3.042 -33.44,3.98 26.63,-66.58 67.54,-125.9 118.9397,-174.17 0.11,-0.11 119,-110.9801 153.14,-142.8201 50.2,-46.8 127.17,-46.95 177.49,-2.3 4.86,4.31 4.46,12.01 -0.87,15.73 z" />
    <path
       id="shape2"
       transform="matrix(0.01727382,0,0,0.01727382,0.54497166,2.9932589)"
       fill="#99ebfa"
       stroke="#000000"
       stroke-opacity="0"
       stroke-width="0"
       stroke-linecap="square"
       stroke-linejoin="bevel"
       d="m 303.97,0 c -3.23,36.3 -21.6,69.59 -50.59,91.66 -31.792,24.215 -66.451,44.414 -103.19,60.14 l -46.75,88.71 C 84.1458,277.123 53.6756,306.626 16.46,324.73 L 78.78,175.98 C 52.9268,182.533 26.5776,186.944 0,189.17 18.27,143.5 43.25,101.25 73.73,63.64 122.01,69.25 170.42,67.49 217.4,58.87 253.24,52.3 284.67,30.91 303.97,0 Z" />
    <path
       id="shape3"
       transform="matrix(0.01727382,0,0,0.01727382,1.8184838,2.9933107)"
       fill="#e0ef9b"
       stroke="#000000"
       stroke-opacity="0"
       stroke-width="0"
       stroke-linecap="square"
       stroke-linejoin="bevel"
       d="m 279.665,318.192 c -23.698,-6.85 -41.953,-25.85 -47.706,-49.838 -4.96,-20.696 -5.102,-42.255 -0.416,-63.015 20.637,-5.11 42.139,-6.219 62.982,-2.088 24.198,4.795 43.908,22.281 51.694,45.688 7.889,23.714 10.295,48.881 7.179,73.505 -24.481,4.092 -49.723,2.688 -73.733,-4.252 z M 130.131,30.615 C 102.001,27.2506 74.2183,21.4379 47.099,13.243 30.2346,28.9151 14.4959,45.7565 0,63.642 48.281,69.247 96.697,67.485 143.674,58.869 179.512,52.296 210.948,30.91 230.24,0 202.666,23.816 166.309,34.942 130.131,30.615 Z" />
    <path
       id="shape4"
       transform="matrix(0.01727382,0,0,0.01727382,1.3793658e-5,2.2420033e-4)"
       fill="#000000"
       stroke="#000000"
       stroke-opacity="0"
       stroke-width="0"
       stroke-linecap="square"
       stroke-linejoin="bevel"
       d="m 240.958,384 c -5.52,0 -10,-4.49 -10,-10 0,-5.51 4.48,-10 10,-10 5.51,0 10,4.49 10,10 0,5.51 -4.49,10 -10,10 z m 257.06,-60 h -204.67 c 1.125,-3.202 1.697,-6.571 1.691,-9.965 l -0.017,-39.803 c 15.745,-1.682 30.798,-6.17 44.862,-13.408 19.673,-10.123 34.736,-28.304 41.326,-49.88 6.554,-21.457 9.176,-43.532 7.846,-65.819 10.466,4.179 26.636,8.719 46.122,7.886 -1.587,4.913 -0.533,10.297 2.79,14.249 2.898,3.468 8.598,7.094 16.13,4.6 31.811,-10.536 52.939,-41.275 51.36,-74.811 -0.65,-13.785 -5.019,-26.826 -12.697,-38.162 0.995,-2.2178 1.578,-4.5984 1.719,-7.025 0.361,-6.177 -2.091,-12.08 -6.729,-16.194 C 461.451,12.331 427.509,-0.341979 392.23,0.0070208 356.701,0.349021 322.813,13.892 296.809,38.141 c 0,0 -169.148,158.362 -176.645,166.407 -42.1238,45.203 -75.0628,97.075 -97.9058,154.176 -2.37,5.954 1.405,13.938 10.121,13.679 2.999,-0.089 5.974,-0.53 8.954,-0.834 L 7.85321,412.456 c -10.635,12.987 -10.46,31.694 0.474,44.432 11.91199,13.878 30.19499,14.703 42.68599,8.065 l -12.227,29.184 c -3.672,9.96 6.425,16.412 13.598,12.856 39.399,-19.167 71.0208,-49.785 91.4488,-88.545 l 18.154,-34.447 h 33.97 c 5.51,0 9.99,-4.49 9.99,-10 0,-5.51 -4.48,-10 -9.99,-10 h -23.43 l 10.541,-20 h 304.949 v 20 h -202.06 c -5.75,0 -10.372,4.872 -9.976,10.695 0.361,5.305 5.012,9.305 10.329,9.305 h 39.255 c -3.394,19.83 -2.747,40.402 1.943,59.958 6.567,27.382 27.509,49.266 54.653,57.113 15.886,4.591 44.373,10.219 78.158,4.509 4.354,-0.731 7.715,-4.228 8.272,-8.608 3.3,-26.084 0.668,-53.027 -7.611,-77.917 -4.607,-13.85 -12.899,-25.89 -23.64,-35.056 h 60.677 c 5.523,0 10,-4.477 10,-10 v -40 c 10e-4,-5.523 -4.476,-10 -9.999,-10 z M 441.462,132.402 c -14.275,1.734 -28.757,0.083 -42.276,-4.819 l 33.925,-23.653 c 6.033,8.22 8.989,18.296 8.351,28.472 z M 485.48,97.991 c 0.963,20.451 -9.573,39.495 -26.555,49.768 5.607,-18.825 2.134,-39.31 -9.405,-55.27 l 28.358,-19.771 c 4.575,7.66 7.177,16.254 7.602,25.273 z m -205.528,2.807 c -2.416,-4.965 -8.399,-7.032 -13.367,-4.615 -1.952,0.95 -3.88,1.94 -5.817,2.914 L 310.45,52.768 C 356.716,9.62502 427.233,8.70502 474.525,50.673 l -102.722,71.619 c -3.101,2.163 -4.718,5.89 -4.178,9.632 3.58,24.792 1.716,49.413 -5.542,73.177 -5.023,16.443 -16.449,30.271 -31.35,37.939 -5.1,2.624 -10.402,4.836 -15.856,6.613 17.303,-21.389 28.122,-47.666 30.597,-75.494 0.759,-8.543 1.295,-17.104 1.609,-25.675 0.202,-5.519 -4.108,-10.157 -9.627,-10.359 -5.506,-0.209 -10.157,4.108 -10.359,9.627 -0.254,6.847 -0.656,13.688 -1.206,20.518 -25.008,20.167 -57.32,29.513 -89.3,25.689 -21.618,-2.593 -43.034,-6.658 -64.098,-12.169 31.23,-26.871 65.797,-49.599 102.844,-67.623 4.966,-2.418 7.032,-8.403 4.615,-13.369 z m -125.064,96.889 c 25.962,7.518 52.492,12.912 79.328,16.129 14.64,1.747 29.465,1.158 43.92,-1.744 -9.813,4.815 -20.242,8.258 -30.993,10.232 -40.383,7.406 -81.362,9.562 -122.081,6.458 9.469,-10.802 19.421,-21.171 29.826,-31.075 z M 43.9502,445.657 c -6.11,5.051 -15.272,4.258 -20.424,-1.767 -4.6069,-5.379 -4.6912,-13.287 -0.2,-18.763 l 47.003,-57.4 c 7.7742,-1.255 15.5174,-2.695 23.223,-4.319 l -26.435,63.103 z M 126.14,409.123 C 112.294,435.394 92.7472,457.52 68.8082,474.234 L 117.638,357.672 c 14.415,-3.809 28.65,-8.269 42.662,-13.366 z M 265.014,324 h -56.921 c 23.301,-11.384 45.673,-24.577 66.911,-39.459 l 0.011,29.456 C 275.016,319.521 270.538,324 265.014,324 Z m 13.858,-67.03 c -67.697,51.536 -147.455,83.794 -231.5878,93.821 16.2835,-36.933 37.1903,-71.649 62.2188,-103.316 60.244,6.662 112.434,-0.212 141.249,-5.497 23.868,-4.378 45.992,-14.923 64.307,-30.215 -8.115,17.635 -20.471,33.243 -36.187,45.207 z m 163.13,168.398 c 6.546,19.677 9.11,40.805 7.515,61.552 -20.668,2.418 -41.879,0.697 -61.801,-5.062 -20.249,-5.854 -35.866,-22.163 -40.759,-42.564 -3.136,-13.073 -4.181,-26.668 -3.146,-40.088 l 64.521,62.018 c 3.982,3.828 10.311,3.703 14.14,-0.28 3.827,-3.981 3.701,-10.312 -0.28,-14.139 l -64.377,-61.879 c 13.738,-1.609 27.145,-1.147 40.037,1.407 20.581,4.079 37.498,19.036 44.15,39.035 z M 405.018,55 c 0,5.523 4.477,10 10,10 5.523,0 10,-4.477 10,-10 0,-5.523 -4.477,-10 -10,-10 -5.523,0 -10,4.477 -10,10 z" />
  </g>
</svg>
