<?xml version="1.0" standalone="no"?>
<!DOCTYPE svg PUBLIC "-//W3C//DTD SVG 20010904//EN" "http://www.w3.org/TR/2001/REC-SVG-20010904/DTD/svg10.dtd">
<!-- Created using Krita: https://krita.org -->
<svg xmlns="http://www.w3.org/2000/svg" 
    xmlns:xlink="http://www.w3.org/1999/xlink"
    xmlns:krita="http://krita.org/namespaces/svg/krita"
    xmlns:sodipodi="http://sodipodi.sourceforge.net/DTD/sodipodi-0.dtd"
    width="936.72pt"
    height="624.24pt"
    viewBox="0 0 936.72 624.24">
<defs/>
<path id="shape0" transform="translate(527.687077407308, 58.9871310611298)" fill="#ffbc88" fill-rule="evenodd" stroke="#000000" stroke-opacity="0" stroke-width="0" stroke-linecap="square" stroke-linejoin="bevel" d="M89.7377 29.8487C89.2048 18.5299 84.8623 8.16275 77.9779 0C45.2891 9.26883 19.7117 27.9401 0 54.3671C16.5982 64.0461 36.1894 67.2322 54.8491 63.5239C54.0238 67.3093 52.6669 70.9588 50.8187 74.3638C49.1441 77.445 52.0306 81.0343 55.3604 79.9344C76.0848 73.0878 90.833 53.1104 89.7377 29.8487Z"/><path id="shape1" transform="translate(335.921883585183, 271.492882517903)" fill="#a7bdcd" fill-rule="evenodd" stroke="#000000" stroke-opacity="0" stroke-width="0" stroke-linecap="square" stroke-linejoin="bevel" d="M17.4702 0L283.472 0L283.472 30.8961L0 30.8961Z"/><path id="shape2" transform="matrix(0.772402712447789 0 0 0.772402712447789 242.413054623071 21.2344778193018)" fill="#ff9c9b" stroke="#000000" stroke-opacity="0" stroke-width="0" stroke-linecap="square" stroke-linejoin="bevel" d="M470.292 48.8799L367.562 120.5C371.442 147.36 369.122 173.68 361.692 198.02C355.922 216.92 342.922 232.89 325.352 241.93C310.172 249.75 293.082 254.33 274.972 254.93L274.992 304.03C275.002 314.73 266.602 323.47 256.032 324L167.082 324L125.032 403.78C105.738 440.393 75.2678 469.896 38.0523 488L65.4323 422.65L40.3623 443.36C16.4173 461.968 -12.3567 432.161 5.63227 408.79L55.0323 348.46C43.9352 350.174 32.7818 351.502 21.5923 352.44C48.2223 285.86 89.1323 226.54 140.532 178.27C140.642 178.16 259.532 67.2899 293.672 35.4499C343.872 -11.3501 420.842 -11.5001 471.162 33.1499C476.022 37.4599 475.622 45.1599 470.292 48.8799Z"/><path id="shape3" transform="matrix(0.772402712447789 0 0 0.772402712447789 259.090985778001 147.344594546171)" fill="#99ebfa" stroke="#000000" stroke-opacity="0" stroke-width="0" stroke-linecap="square" stroke-linejoin="bevel" d="M303.97 0C300.74 36.3 282.37 69.59 253.38 91.66C221.588 115.875 186.929 136.074 150.19 151.8L103.44 240.51C84.1458 277.123 53.6756 306.626 16.46 324.73L78.78 175.98C52.9268 182.533 26.5776 186.944 0 189.17C18.27 143.5 43.25 101.25 73.73 63.64C122.01 69.25 170.42 67.49 217.4 58.87C253.24 52.3 284.67 30.91 303.97 0Z"/><path id="shape4" transform="matrix(0.772402712447789 0 0 0.772402712447789 316.036375753211 147.346911754308)" fill="#e0ef9b" stroke="#000000" stroke-opacity="0" stroke-width="0" stroke-linecap="square" stroke-linejoin="bevel" d="M279.665 318.192C255.967 311.342 237.712 292.342 231.959 268.354C226.999 247.658 226.857 226.099 231.543 205.339C252.18 200.229 273.682 199.12 294.525 203.251C318.723 208.046 338.433 225.532 346.219 248.939C354.108 272.653 356.514 297.82 353.398 322.444C328.917 326.536 303.675 325.132 279.665 318.192ZM130.131 30.615C102.001 27.2506 74.2183 21.4379 47.099 13.243C30.2346 28.9151 14.4959 45.7565 0 63.642C48.281 69.247 96.697 67.485 143.674 58.869C179.512 52.296 210.948 30.91 230.24 0C202.666 23.816 166.309 34.942 130.131 30.615Z"/><path id="shape5" transform="matrix(0.772402712447789 0 0 0.772402712447789 234.723066095343 13.5103604993874)" fill="#000000" stroke="#000000" stroke-opacity="0" stroke-width="0" stroke-linecap="square" stroke-linejoin="bevel" d="M240.958 384C235.438 384 230.958 379.51 230.958 374C230.958 368.49 235.438 364 240.958 364C246.468 364 250.958 368.49 250.958 374C250.958 379.51 246.468 384 240.958 384ZM498.018 324L293.348 324C294.473 320.798 295.045 317.429 295.039 314.035L295.022 274.232C310.767 272.55 325.82 268.062 339.884 260.824C359.557 250.701 374.62 232.52 381.21 210.944C387.764 189.487 390.386 167.412 389.056 145.125C399.522 149.304 415.692 153.844 435.178 153.011C433.591 157.924 434.645 163.308 437.968 167.26C440.866 170.728 446.566 174.354 454.098 171.86C485.909 161.324 507.037 130.585 505.458 97.049C504.808 83.264 500.439 70.223 492.761 58.887C493.756 56.6692 494.339 54.2886 494.48 51.862C494.841 45.685 492.389 39.782 487.751 35.668C461.451 12.331 427.509 -0.341979 392.23 0.00702079C356.701 0.349021 322.813 13.892 296.809 38.141C296.809 38.141 127.661 196.503 120.164 204.548C78.0402 249.751 45.1012 301.623 22.2582 358.724C19.8882 364.678 23.6632 372.662 32.3792 372.403C35.3782 372.314 38.3532 371.873 41.3332 371.569L7.85321 412.456C-2.78179 425.443 -2.60679 444.15 8.32721 456.888C20.2392 470.766 38.5222 471.591 51.0132 464.953L38.7862 494.137C35.1142 504.097 45.2112 510.549 52.3842 506.993C91.7832 487.826 123.405 457.208 143.833 418.448L161.987 384.001L195.957 384.001C201.467 384.001 205.947 379.511 205.947 374.001C205.947 368.491 201.467 364.001 195.957 364.001L172.527 364.001L183.068 344.001L488.017 344.001L488.017 364.001L285.957 364.001C280.207 364.001 275.585 368.873 275.981 374.696C276.342 380.001 280.993 384.001 286.31 384.001L325.565 384.001C322.171 403.831 322.818 424.403 327.508 443.959C334.075 471.341 355.017 493.225 382.161 501.072C398.047 505.663 426.534 511.291 460.319 505.581C464.673 504.85 468.034 501.353 468.591 496.973C471.891 470.889 469.259 443.946 460.98 419.056C456.373 405.206 448.081 393.166 437.34 384L498.017 384C503.54 384 508.017 379.523 508.017 374L508.017 334C508.018 328.477 503.541 324 498.018 324ZM441.462 132.402C427.187 134.136 412.705 132.485 399.186 127.583L433.111 103.93C439.144 112.15 442.1 122.226 441.462 132.402ZM485.48 97.991C486.443 118.442 475.907 137.486 458.925 147.759C464.532 128.934 461.059 108.449 449.52 92.489L477.878 72.718C482.453 80.378 485.055 88.972 485.48 97.991ZM279.952 100.798C277.536 95.833 271.553 93.766 266.585 96.183C264.633 97.133 262.705 98.123 260.768 99.097L310.45 52.768C356.716 9.62502 427.233 8.70502 474.525 50.673L371.803 122.292C368.702 124.455 367.085 128.182 367.625 131.924C371.205 156.716 369.341 181.337 362.083 205.101C357.06 221.544 345.634 235.372 330.733 243.04C325.633 245.664 320.331 247.876 314.877 249.653C332.18 228.264 342.999 201.987 345.474 174.159C346.233 165.616 346.769 157.055 347.083 148.484C347.285 142.965 342.975 138.327 337.456 138.125C331.95 137.916 327.299 142.233 327.097 147.752C326.843 154.599 326.441 161.44 325.891 168.27C300.883 188.437 268.571 197.783 236.591 193.959C214.973 191.366 193.557 187.301 172.493 181.79C203.723 154.919 238.29 132.191 275.337 114.167C280.303 111.749 282.369 105.764 279.952 100.798ZM154.888 197.687C180.85 205.205 207.38 210.599 234.216 213.816C248.856 215.563 263.681 214.974 278.136 212.072C268.323 216.887 257.894 220.33 247.143 222.304C206.76 229.71 165.781 231.866 125.062 228.762C134.531 217.96 144.483 207.591 154.888 197.687ZM43.9502 445.657C37.8402 450.708 28.6782 449.915 23.5262 443.89C18.9193 438.511 18.835 430.603 23.3262 425.127L70.3292 367.727C78.1034 366.472 85.8466 365.032 93.5522 363.408L67.1172 426.511ZM126.14 409.123C112.294 435.394 92.7472 457.52 68.8082 474.234L117.638 357.672C132.053 353.863 146.288 349.403 160.3 344.306ZM265.014 324L208.093 324C231.394 312.616 253.766 299.423 275.004 284.541L275.015 313.997C275.016 319.521 270.538 324 265.014 324ZM278.872 256.97C211.175 308.506 131.417 340.764 47.2842 350.791C63.5677 313.858 84.4745 279.142 109.503 247.475C169.747 254.137 221.937 247.263 250.752 241.978C274.62 237.6 296.744 227.055 315.059 211.763C306.944 229.398 294.588 245.006 278.872 256.97ZM442.002 425.368C448.548 445.045 451.112 466.173 449.517 486.92C428.849 489.338 407.638 487.617 387.716 481.858C367.467 476.004 351.85 459.695 346.957 439.294C343.821 426.221 342.776 412.626 343.811 399.206L408.332 461.224C412.314 465.052 418.643 464.927 422.472 460.944C426.299 456.963 426.173 450.632 422.192 446.805L357.815 384.926C371.553 383.317 384.96 383.779 397.852 386.333C418.433 390.412 435.35 405.369 442.002 425.368ZM405.018 55C405.018 60.523 409.495 65 415.018 65C420.541 65 425.018 60.523 425.018 55C425.018 49.477 420.541 45 415.018 45C409.495 45 405.018 49.477 405.018 55Z"/><text id="shape6" krita:useRichText="true" transform="translate(66.92, 499.159985394346)" fill="#3780ff" stroke="#000000" stroke-opacity="0" stroke-width="0" stroke-linecap="square" stroke-linejoin="bevel" font-family="Bradley Hand ITC" font-size="55" font-size-adjust="0.2" font-stretch="normal" font-weight="700" letter-spacing="0" text-anchor="middle" word-spacing="0"><tspan x="371.5" font-size="85">Chorder</tspan><tspan x="371.5" dy="64.7">The ultimate music tool</tspan></text>
</svg>
