<?xml version="1.0" encoding="UTF-8" standalone="no"?>
<svg
   xmlns:dc="http://purl.org/dc/elements/1.1/"
   xmlns:cc="http://creativecommons.org/ns#"
   xmlns:rdf="http://www.w3.org/1999/02/22-rdf-syntax-ns#"
   xmlns:svg="http://www.w3.org/2000/svg"
   xmlns="http://www.w3.org/2000/svg"
   xmlns:sodipodi="http://sodipodi.sourceforge.net/DTD/sodipodi-0.dtd"
   xmlns:inkscape="http://www.inkscape.org/namespaces/inkscape"
   width="141.15424mm"
   height="142.05339mm"
   viewBox="0 0 141.15425 142.05339"
   version="1.1"
   id="svg8"
   inkscape:version="1.0.2-2 (e86c870879, 2021-01-15)"
   sodipodi:docname="pink-bird-blob.svg">
  <defs
     id="defs2">
    <clipPath
       clipPathUnits="userSpaceOnUse"
       id="clipPath112">
      <path
         d="m 330.279,328.529 h 87.912 v -16.55 h -87.912 z"
         id="path110" />
    </clipPath>
    <clipPath
       clipPathUnits="userSpaceOnUse"
       id="clipPath256">
      <path
         d="m 328.441,122.184 h 87.913 v -16.549 h -87.913 z"
         id="path254" />
    </clipPath>
    <clipPath
       clipPathUnits="userSpaceOnUse"
       id="clipPath28">
      <path
         d="m 40.3687,328.529 h 87.9123 v -16.55 H 40.3687 Z"
         id="path26" />
    </clipPath>
    <clipPath
       clipPathUnits="userSpaceOnUse"
       id="clipPath112-6">
      <path
         d="m 330.279,328.529 h 87.912 v -16.55 h -87.912 z"
         id="path110-4" />
    </clipPath>
    <clipPath
       clipPathUnits="userSpaceOnUse"
       id="clipPath112-57">
      <path
         d="m 330.279,328.529 h 87.912 v -16.55 h -87.912 z"
         id="path110-73" />
    </clipPath>
    <clipPath
       clipPathUnits="userSpaceOnUse"
       id="clipPath256-4">
      <path
         d="m 328.441,122.184 h 87.913 v -16.549 h -87.913 z"
         id="path254-89" />
    </clipPath>
    <clipPath
       clipPathUnits="userSpaceOnUse"
       id="clipPath28-3">
      <path
         d="m 40.3687,328.529 h 87.9123 v -16.55 H 40.3687 Z"
         id="path26-6" />
    </clipPath>
    <clipPath
       clipPathUnits="userSpaceOnUse"
       id="clipPath112-6-9">
      <path
         d="m 330.279,328.529 h 87.912 v -16.55 h -87.912 z"
         id="path110-4-3" />
    </clipPath>
    <clipPath
       clipPathUnits="userSpaceOnUse"
       id="clipPath112-5">
      <path
         d="m 330.279,328.529 h 87.912 v -16.55 h -87.912 z"
         id="path110-7" />
    </clipPath>
    <clipPath
       clipPathUnits="userSpaceOnUse"
       id="clipPath256-0">
      <path
         d="m 328.441,122.184 h 87.913 v -16.549 h -87.913 z"
         id="path254-8" />
    </clipPath>
    <clipPath
       clipPathUnits="userSpaceOnUse"
       id="clipPath112-3">
      <path
         d="m 330.279,328.529 h 87.912 v -16.55 h -87.912 z"
         id="path110-2" />
    </clipPath>
    <clipPath
       clipPathUnits="userSpaceOnUse"
       id="clipPath256-5">
      <path
         d="m 328.441,122.184 h 87.913 v -16.549 h -87.913 z"
         id="path254-2" />
    </clipPath>
    <clipPath
       clipPathUnits="userSpaceOnUse"
       id="clipPath28-1">
      <path
         d="m 40.3687,328.529 h 87.9123 v -16.55 H 40.3687 Z"
         id="path26-1" />
    </clipPath>
    <clipPath
       clipPathUnits="userSpaceOnUse"
       id="clipPath112-6-6">
      <path
         d="m 330.279,328.529 h 87.912 v -16.55 h -87.912 z"
         id="path110-4-9" />
    </clipPath>
    <clipPath
       clipPathUnits="userSpaceOnUse"
       id="clipPath112-8">
      <path
         d="m 330.279,328.529 h 87.912 v -16.55 h -87.912 z"
         id="path110-1" />
    </clipPath>
    <clipPath
       clipPathUnits="userSpaceOnUse"
       id="clipPath256-2">
      <path
         d="m 328.441,122.184 h 87.913 v -16.549 h -87.913 z"
         id="path254-7" />
    </clipPath>
    <clipPath
       clipPathUnits="userSpaceOnUse"
       id="clipPath404">
      <path
         d="M 40.3687,122.184 H 128.281 V 105.635 H 40.3687 Z"
         id="path402" />
    </clipPath>
    <clipPath
       clipPathUnits="userSpaceOnUse"
       id="clipPath112-4">
      <path
         d="m 330.279,328.529 h 87.912 v -16.55 h -87.912 z"
         id="path110-9" />
    </clipPath>
    <clipPath
       clipPathUnits="userSpaceOnUse"
       id="clipPath256-43">
      <path
         d="m 328.441,122.184 h 87.913 v -16.549 h -87.913 z"
         id="path254-3" />
    </clipPath>
    <clipPath
       clipPathUnits="userSpaceOnUse"
       id="clipPath28-9">
      <path
         d="m 40.3687,328.529 h 87.9123 v -16.55 H 40.3687 Z"
         id="path26-65" />
    </clipPath>
  </defs>
  <sodipodi:namedview
     id="base"
     pagecolor="#ffffff"
     bordercolor="#666666"
     borderopacity="1.0"
     inkscape:pageopacity="0.0"
     inkscape:pageshadow="2"
     inkscape:zoom="0.35"
     inkscape:cx="141.95808"
     inkscape:cy="229.6388"
     inkscape:document-units="mm"
     inkscape:current-layer="layer1"
     inkscape:document-rotation="0"
     showgrid="false"
     inkscape:window-width="1366"
     inkscape:window-height="738"
     inkscape:window-x="0"
     inkscape:window-y="0"
     inkscape:window-maximized="0" />
  <metadata
     id="metadata5">
    <rdf:RDF>
      <cc:Work
         rdf:about="">
        <dc:format>image/svg+xml</dc:format>
        <dc:type
           rdf:resource="http://purl.org/dc/dcmitype/StillImage" />
        <dc:title></dc:title>
      </cc:Work>
    </rdf:RDF>
  </metadata>
  <g
     inkscape:label="Livello 1"
     inkscape:groupmode="layer"
     id="layer1"
     transform="translate(47.446026,-56.452166)">
    <path
       d="m 71.816808,97.935909 c 12.489403,17.693431 22.190991,33.235331 21.88433,48.465841 -0.306661,15.25881 -10.565815,30.20623 -23.083097,39.03878 -12.4894,8.86087 -27.209061,11.60688 -42.98808,12.68265 -15.751151,1.04745 -32.5895317,0.45294 -46.61223,-8.40791 -14.022699,-8.83257 -25.285465,-25.93149 -27.878132,-45.6349 -2.592658,-19.7317 3.456894,-42.0679 17.479582,-59.761329 14.050579,-17.693433 36.0464275,-30.7441 54.724773,-27.318656 18.65047,3.397144 33.955564,23.242086 46.472854,40.935524"
       fill="#f7caca"
       id="path147"
       style="fill:#d6fffe;fill-opacity:1;stroke-width:0.280929" />
    <g
       id="g22"
       transform="matrix(0.78958322,0,0,-0.78071801,-53.730444,413.43101)">
      <g
         id="g24" />
      <g
         id="g36">
        <g
           clip-path="url(#clipPath28-9)"
           opacity="0.0500031"
           id="g34">
          <g
             transform="translate(128.2812,320.2539)"
             id="g32">
            <path
               d="m 0,0 c 0,-4.57 -19.68,-8.275 -43.957,-8.275 -24.275,0 -43.956,3.705 -43.956,8.275 0,4.57 19.681,8.275 43.956,8.275 C -19.68,8.275 0,4.57 0,0"
               style="fill:#111110;fill-opacity:1;fill-rule:nonzero;stroke:none"
               id="path30" />
          </g>
        </g>
      </g>
    </g>
    <g
       id="g38"
       transform="matrix(0.78958322,0,0,-0.78071801,12.02819,144.00858)">
      <path
         d="m 0,0 v -14.363 c 0,-1.715 2.66,-1.715 2.66,0 V 0 C 2.66,1.715 0,1.715 0,0"
         style="fill:#dd6e0a;fill-opacity:1;fill-rule:nonzero;stroke:none"
         id="path40" />
    </g>
    <g
       id="g42"
       transform="matrix(0.78958322,0,0,-0.78071801,6.8106795,160.61985)">
      <path
         d="m 0,0 c 1.943,6.385 13.933,6.384 15.876,0 0.499,-1.636 3.066,-0.938 2.565,0.707 C 15.726,9.625 0.15,9.626 -2.565,0.707 -3.065,-0.938 -0.498,-1.636 0,0"
         style="fill:#dd6e0a;fill-opacity:1;fill-rule:nonzero;stroke:none"
         id="path44" />
    </g>
    <g
       id="g46"
       transform="matrix(0.78958322,0,0,-0.78071801,12.79889,156.91556)">
      <path
         d="m 0,0 c -0.553,0.218 -0.051,0.007 0.096,-0.079 0.329,-0.193 0.515,-0.377 0.812,-0.689 1.08,-1.139 1.307,-2.836 1.308,-4.333 0,-1.715 2.66,-1.715 2.659,0 C 4.874,-2.095 3.745,1.37 0.708,2.565 -0.891,3.194 -1.576,0.621 0,0"
         style="fill:#dd6e0a;fill-opacity:1;fill-rule:nonzero;stroke:none"
         id="path48" />
    </g>
    <g
       id="g50"
       transform="matrix(0.78958322,0,0,-0.78071801,0.75774052,147.54203)">
      <path
         d="m 0,0 v -14.363 c 0,-1.715 2.66,-1.715 2.66,0 V 0 C 2.66,1.715 0,1.715 0,0"
         style="fill:#f4881c;fill-opacity:1;fill-rule:nonzero;stroke:none"
         id="path52" />
    </g>
    <g
       id="g54"
       transform="matrix(0.78958322,0,0,-0.78071801,-4.4597455,164.15322)">
      <path
         d="m 0,0 c 1.943,6.385 13.933,6.384 15.876,0 0.499,-1.636 3.066,-0.938 2.565,0.707 -2.715,8.918 -18.292,8.919 -21.006,0 C -3.065,-0.938 -0.498,-1.636 0,0"
         style="fill:#f4881c;fill-opacity:1;fill-rule:nonzero;stroke:none"
         id="path56" />
    </g>
    <g
       id="g58"
       transform="matrix(0.78958322,0,0,-0.78071801,1.5284655,160.44863)">
      <path
         d="m 0,0 c -0.553,0.217 -0.051,0.007 0.096,-0.079 0.329,-0.193 0.515,-0.377 0.812,-0.69 1.08,-1.138 1.307,-2.836 1.308,-4.332 10e-4,-1.715 2.66,-1.715 2.659,0 C 4.873,-2.095 3.745,1.37 0.708,2.565 -0.891,3.193 -1.577,0.621 0,0"
         style="fill:#f4881c;fill-opacity:1;fill-rule:nonzero;stroke:none"
         id="path60" />
    </g>
    <g
       id="g62"
       transform="matrix(0.78958322,0,0,-0.78071801,-7.0116815,150.47697)"
       style="fill:#ff80b2">
      <path
         d="m 0,0 c 0,0 -30.611,-21.556 -20.647,-28.093 9.964,-6.538 22.965,18.958 25.341,28.014 z"
         style="fill:#ff80b2;fill-opacity:1;fill-rule:nonzero;stroke:none"
         id="path64" />
    </g>
    <g
       id="g66"
       transform="matrix(0.78958322,0,0,-0.78071801,-13.172944,151.14138)"
       style="fill:#ffaacc">
      <path
         d="M 0,0 C 0,0 -33.867,-15.958 -25.179,-24.115 -16.491,-32.272 0.709,-9.398 4.61,-0.887 Z"
         style="fill:#ffaacc;fill-opacity:1;fill-rule:nonzero;stroke:none"
         id="path68" />
    </g>
    <g
       id="g70"
       transform="matrix(0.78958322,0,0,-0.78071801,39.33244,83.001633)">
      <path
         d="m 0,0 c 0,0 -9.933,2.976 -14.188,8.473 -4.256,5.498 -5.498,9.753 -7.27,9.753 -1.774,0 -3.559,-12.928 8.416,-21.093 0,0 10.209,0.422 13.042,2.867"
         style="fill:#ffcf03;fill-opacity:1;fill-rule:nonzero;stroke:none"
         id="path72" />
    </g>
    <g
       id="g74"
       transform="matrix(0.78958322,0,0,-0.78071801,32.47136,84.460561)">
      <path
         d="m 0,0 c 0,0 -10.369,0.107 -15.982,4.209 -5.612,4.103 -7.984,7.848 -9.688,7.357 -1.704,-0.492 0.164,-13.408 13.933,-17.935 0,0 9.691,3.235 11.737,6.369"
         style="fill:#ffcf03;fill-opacity:1;fill-rule:nonzero;stroke:none"
         id="path76" />
    </g>
    <g
       id="g78"
       transform="matrix(0.78958322,0,0,-0.78071801,26.7843,88.331361)">
      <path
         d="m 0,0 c 0,0 -10.063,-2.506 -16.526,0.053 -6.464,2.558 -9.703,5.586 -11.227,4.682 -1.526,-0.904 3.532,-12.936 17.996,-13.852 0,0 8.566,5.568 9.757,9.117"
         style="fill:#ffcf03;fill-opacity:1;fill-rule:nonzero;stroke:none"
         id="path80" />
    </g>
    <g
       id="g82"
       transform="matrix(0.78958322,0,0,-0.78071801,-22.973346,152.52558)"
       style="fill:#ffbcd7;fill-opacity:1">
      <path
         d="M 0,0 C 0,0 16.314,24.25 25.534,38.123 34.195,51.155 56.387,94.421 82.187,88.57 107.986,82.719 108.869,42.096 77.399,21.544 38.301,-3.99 8.777,-3.724 0,0"
         style="fill:#ffbcd7;fill-opacity:1;fill-rule:nonzero;stroke:none"
         id="path84" />
    </g>
    <g
       id="g86"
       transform="matrix(0.78958322,0,0,-0.78071801,56.4877,97.935909)">
      <path
         d="m 0,0 c 0,0 13.271,-6.724 7.084,-20.052 l -4.761,3.857 c 0,0 -0.692,-2.659 3.298,-3.857 0,0 -2.66,-4.654 -8.465,-2.75 0,0 -7.948,13.237 2.844,22.802"
         style="fill:#6b727c;fill-opacity:1;fill-rule:nonzero;stroke:none"
         id="path88" />
    </g>
    <g
       id="g90"
       transform="matrix(0.78958322,0,0,-0.78071801,46.33036,98.535969)">
      <path
         d="m 0,0 c 0,-1.762 -1.429,-3.191 -3.192,-3.191 -1.763,0 -3.191,1.429 -3.191,3.191 0,1.763 1.428,3.192 3.191,3.192 C -1.429,3.192 0,1.763 0,0"
         style="fill:#352a30;fill-opacity:1;fill-rule:nonzero;stroke:none"
         id="path92" />
    </g>
    <g
       id="g94"
       transform="matrix(0.78958322,0,0,-0.78071801,-21.503281,138.19777)"
       style="fill:#ff80b2">
      <path
         d="M 0,0 C 0,0 35.214,32.981 54.312,36.439 73.41,39.897 80.325,17.023 67.292,6.649 54.259,-3.723 16.49,-13.564 0,0"
         style="fill:#ff80b2;fill-opacity:1;fill-rule:nonzero;stroke:none"
         id="path96" />
    </g>
    <g
       id="g98"
       transform="matrix(0.78958322,0,0,-0.78071801,21.38023,109.74926)"
       style="fill:#ff0066">
      <path
         d="m 0,0 c -12.798,-2.316 -32.82,-17.883 -44.646,-27.907 -0.035,-0.072 -3.586,-7.318 15.336,-4.01 0,0 -2.926,-4.389 0,-5.32 2.926,-0.93 11.988,2.261 11.988,2.261 0,0 -4.853,-6.797 7.037,-5.204 9.659,2.532 18.276,6.42 23.266,10.39 C 26.014,-19.416 19.098,3.458 0,0"
         style="fill:#ff0066;fill-opacity:1;fill-rule:nonzero;stroke:none"
         id="path100" />
    </g>
    <g
       id="g102"
       transform="matrix(0.78958322,0,0,-0.78071801,21.38023,109.74926)"
       style="fill:#aa0044;fill-opacity:1">
      <path
         d="m 0,0 c -7.508,-1.359 -17.505,-7.286 -26.876,-13.974 -0.047,-0.12 -3.067,-8.065 18.711,-3.181 0,0 -5.984,-6.517 -1.596,-8.245 4.389,-1.729 17.023,4.046 17.023,4.046 0,0 -3.723,-6.44 -0.665,-7.504 3.054,-1.062 9.593,3.682 11.91,6.622 C 22.685,-11.201 15.215,2.755 0,0"
         style="fill:#aa0044;fill-opacity:1;fill-rule:nonzero;stroke:none"
         id="path104" />
    </g>
  </g>
</svg>
